%TF.GenerationSoftware,Altium Limited,Altium Designer,24.3.1 (35)*%
G04 Layer_Color=0*
%FSLAX45Y45*%
%MOMM*%
%TF.SameCoordinates,0FFCB549-CC09-4AA2-A398-349E3E2AD51F*%
%TF.FilePolarity,Positive*%
%TF.FileFunction,Plated,1,2,PTH,Drill*%
%TF.Part,Single*%
G01*
G75*
%TA.AperFunction,OtherDrill,Pad Free-20 (3mm,3mm)*%
%ADD41C,4.00000*%
%TA.AperFunction,OtherDrill,Pad Free-19 (27mm,3mm)*%
%ADD42C,4.00000*%
%TA.AperFunction,OtherDrill,Pad Free-18 (27mm,97mm)*%
%ADD43C,4.00000*%
%TA.AperFunction,OtherDrill,Pad Free-17 (3mm,97mm)*%
%ADD44C,4.00000*%
%TA.AperFunction,ComponentDrill*%
%ADD45C,1.02000*%
%ADD46C,0.76200*%
%ADD47C,0.63500*%
%ADD48C,0.90000*%
%ADD49C,0.75000*%
%ADD50O,4.40000X1.80000*%
%ADD51C,1.00000*%
%TA.AperFunction,ViaDrill,NotFilled*%
%ADD52C,0.71120*%
D41*
X300000Y300000D02*
D03*
D42*
X2700000D02*
D03*
D43*
Y9700002D02*
D03*
D44*
X300000D02*
D03*
D45*
X2000001Y9050001D02*
D03*
X1746001D02*
D03*
X1492001D02*
D03*
X1238001D02*
D03*
X984001D02*
D03*
X2000001Y8796001D02*
D03*
X1746001D02*
D03*
X1492001D02*
D03*
X1238001D02*
D03*
X984001D02*
D03*
D46*
X2600000Y5469998D02*
D03*
Y6993998D02*
D03*
Y6739998D02*
D03*
Y6485998D02*
D03*
Y6231998D02*
D03*
Y5977998D02*
D03*
Y5723998D02*
D03*
Y5215998D02*
D03*
Y4961998D02*
D03*
Y4707998D02*
D03*
Y4453998D02*
D03*
D47*
Y4199998D02*
D03*
D48*
X1150000Y6573999D02*
D03*
Y6319999D02*
D03*
Y6065999D02*
D03*
Y5811999D02*
D03*
Y5557999D02*
D03*
Y5303999D02*
D03*
Y5049999D02*
D03*
Y4795999D02*
D03*
Y4541999D02*
D03*
Y4287999D02*
D03*
X1912000Y6573999D02*
D03*
Y6319999D02*
D03*
Y6065999D02*
D03*
Y5811999D02*
D03*
Y5557999D02*
D03*
Y5303999D02*
D03*
Y5049999D02*
D03*
Y4795999D02*
D03*
Y4541999D02*
D03*
Y4287999D02*
D03*
D49*
X1550000Y2950003D02*
D03*
Y3450002D02*
D03*
D50*
X1500002Y1319998D02*
D03*
Y180001D02*
D03*
D51*
X750001Y999999D02*
D03*
Y750002D02*
D03*
Y500000D02*
D03*
X2200001Y999999D02*
D03*
Y500000D02*
D03*
D52*
X700000Y4650000D02*
D03*
X662498Y6086496D02*
D03*
X1588760Y3707380D02*
D03*
X1560820Y4301740D02*
D03*
X1642100Y5023100D02*
D03*
X837499Y4099002D02*
D03*
X1835140Y3786120D02*
D03*
X2416800Y5279640D02*
D03*
X2139940Y8662920D02*
D03*
%TF.MD5,1fc954be333a5f34bc509b3de2cfe592*%
M02*
