%TF.GenerationSoftware,Altium Limited,Altium Designer,24.3.1 (35)*%
G04 Layer_Color=32896*
%FSLAX45Y45*%
%MOMM*%
%TF.SameCoordinates,0FFCB549-CC09-4AA2-A398-349E3E2AD51F*%
%TF.FilePolarity,Positive*%
%TF.FileFunction,Legend,Bot*%
%TF.Part,Single*%
G01*
G75*
%TA.AperFunction,NonConductor*%
%ADD24C,0.25000*%
%ADD25C,0.20000*%
%ADD28C,0.25400*%
D24*
X2345000Y500000D02*
G03*
X2345000Y500000I-12500J0D01*
G01*
D25*
X1787500Y100001D02*
X2195002D01*
X805002D02*
X1212500D01*
X805002Y1115000D02*
Y1399998D01*
Y864998D02*
Y884998D01*
Y615001D02*
Y635001D01*
Y100001D02*
Y384999D01*
X1787500Y1399998D02*
X2195002D01*
X805002D02*
X1212500D01*
X2195002Y1115000D02*
Y1399998D01*
Y615001D02*
Y884998D01*
Y100001D02*
Y384999D01*
D28*
X2473000Y7120998D02*
X2727000D01*
X2473000Y4072998D02*
Y7120998D01*
Y4072998D02*
X2727000D01*
Y7120998D01*
X2244400Y4161901D02*
Y4212684D01*
Y4187293D01*
X2396751D01*
X2371359Y4161901D01*
X2244400Y6955901D02*
Y7006684D01*
Y6981293D01*
X2396751D01*
X2371359Y6955901D01*
X2244400Y7184427D02*
Y7082860D01*
X2345967Y7184427D01*
X2371359D01*
X2396751Y7159035D01*
Y7108251D01*
X2371359Y7082860D01*
X2676175Y3572258D02*
X2523825D01*
Y3673825D01*
X2676175Y3724609D02*
X2523825D01*
Y3800784D01*
X2549216Y3826176D01*
X2650783D01*
X2676175Y3800784D01*
Y3724609D01*
X2523825Y3876959D02*
Y3927743D01*
Y3902351D01*
X2676175D01*
X2650783Y3876959D01*
X2378534Y4569401D02*
Y4670968D01*
X2353142D01*
X2251575Y4569401D01*
X2226183D01*
X2353142Y4823319D02*
X2378534Y4797927D01*
Y4747144D01*
X2353142Y4721752D01*
X2327750D01*
X2302359Y4747144D01*
Y4797927D01*
X2276967Y4823319D01*
X2251575D01*
X2226183Y4797927D01*
Y4747144D01*
X2251575Y4721752D01*
X2226183Y4950278D02*
Y4899494D01*
X2251575Y4874103D01*
X2302359D01*
X2327750Y4899494D01*
Y4950278D01*
X2302359Y4975670D01*
X2276967D01*
Y4874103D01*
X2175400Y5077237D02*
Y5102629D01*
X2200791Y5128020D01*
X2327750D01*
Y5051845D01*
X2302359Y5026453D01*
X2251575D01*
X2226183Y5051845D01*
Y5128020D01*
X2378534Y5331155D02*
X2226183D01*
Y5407330D01*
X2251575Y5432722D01*
X2353142D01*
X2378534Y5407330D01*
Y5331155D01*
X2226183Y5483505D02*
Y5534289D01*
Y5508897D01*
X2327750D01*
Y5483505D01*
X2226183Y5610464D02*
Y5686640D01*
X2251575Y5712032D01*
X2276967Y5686640D01*
Y5635856D01*
X2302359Y5610464D01*
X2327750Y5635856D01*
Y5712032D01*
X2175400Y5762815D02*
X2327750D01*
Y5838990D01*
X2302359Y5864382D01*
X2251575D01*
X2226183Y5838990D01*
Y5762815D01*
Y5915166D02*
Y5965949D01*
Y5940558D01*
X2378534D01*
Y5915166D01*
X2327750Y6067516D02*
Y6118300D01*
X2302359Y6143692D01*
X2226183D01*
Y6067516D01*
X2251575Y6042125D01*
X2276967Y6067516D01*
Y6143692D01*
X2327750Y6194475D02*
X2251575D01*
X2226183Y6219867D01*
Y6296043D01*
X2200791D01*
X2175400Y6270651D01*
Y6245259D01*
X2226183Y6296043D02*
X2327750D01*
X2231413Y1688031D02*
X2332980D01*
Y1535680D01*
X2231413D01*
X2332980Y1611855D02*
X2282197D01*
X2180629Y1535680D02*
Y1688031D01*
X2079062Y1535680D01*
Y1688031D01*
X1926711Y1662639D02*
X1952103Y1688031D01*
X2002887D01*
X2028279Y1662639D01*
Y1561072D01*
X2002887Y1535680D01*
X1952103D01*
X1926711Y1561072D01*
X1875928Y1535680D02*
X1825144D01*
X1850536D01*
Y1688031D01*
X1875928Y1662639D01*
%TF.MD5,afb352cea088b0235899ac1ab935e979*%
M02*
