%TF.GenerationSoftware,Altium Limited,Altium Designer,24.3.1 (35)*%
G04 Layer_Color=0*
%FSLAX45Y45*%
%MOMM*%
%TF.SameCoordinates,77145657-7363-482A-8684-523018AF0833*%
%TF.FilePolarity,Positive*%
%TF.FileFunction,Profile,NP*%
%TF.Part,Single*%
G01*
G75*
%TA.AperFunction,Profile*%
%ADD80C,0.02540*%
G36*
X2200000Y3950000D02*
X2185226Y3949999D01*
X2156247Y3955764D01*
X2128948Y3967071D01*
X2104380Y3983487D01*
X2083487Y4004380D01*
X2067072Y4028948D01*
X2055764Y4056246D01*
X2050000Y4085226D01*
Y4114773D01*
X2055764Y4143753D01*
X2067072Y4171051D01*
X2083487Y4195619D01*
X2104380Y4216512D01*
X2128948Y4232928D01*
X2156247Y4244235D01*
X2185226Y4250000D01*
X2200000Y4249999D01*
X2200000Y4250000D01*
X3449999Y4250000D01*
X3464773Y4250000D01*
X3493753Y4244235D01*
X3521051Y4232928D01*
X3545619Y4216513D01*
X3566512Y4195619D01*
X3582928Y4171052D01*
X3594235Y4143753D01*
X3600000Y4114774D01*
X3600000Y4085226D01*
X3594235Y4056246D01*
X3582928Y4028948D01*
X3566513Y4004380D01*
X3545619Y3983487D01*
X3521051Y3967072D01*
X3493753Y3955764D01*
X3464773Y3950000D01*
X3450000Y3950000D01*
X3450000D01*
X2200000Y3950000D01*
D02*
G37*
D80*
X0Y8200000D02*
X9600000D01*
Y0D01*
X0D01*
Y8200000D01*
%TF.MD5,7059d5da330d3ee6790a77b994f6e982*%
M02*
