%TF.GenerationSoftware,Altium Limited,Altium Designer,24.3.1 (35)*%
G04 Layer_Color=32896*
%FSLAX45Y45*%
%MOMM*%
%TF.SameCoordinates,77145657-7363-482A-8684-523018AF0833*%
%TF.FilePolarity,Positive*%
%TF.FileFunction,Other,Board*%
%TF.Part,Single*%
G01*
G75*
%TA.AperFunction,NonConductor*%
%ADD46C,0.20000*%
%ADD50C,0.10000*%
D46*
X0Y0D02*
X9600000D01*
Y8200000D01*
X0D02*
X9600000D01*
X0Y0D02*
Y8200000D01*
D50*
X8155385Y1499984D02*
X8222030D01*
X8188708D01*
Y1400016D01*
X8255353D02*
Y1499984D01*
X8305337D01*
X8321998Y1483322D01*
Y1450000D01*
X8305337Y1433339D01*
X8255353D01*
X8405304Y1400016D02*
Y1499984D01*
X8355321Y1450000D01*
X8421966D01*
X4816710Y3049984D02*
X4883355D01*
X4850032D01*
Y2950016D01*
X4916677D02*
Y3049984D01*
X4966661D01*
X4983323Y3033323D01*
Y3000000D01*
X4966661Y2983339D01*
X4916677D01*
X5083290Y3049984D02*
X5016645D01*
Y3000000D01*
X5049968Y3016661D01*
X5066629D01*
X5083290Y3000000D01*
Y2966678D01*
X5066629Y2950016D01*
X5033307D01*
X5016645Y2966678D01*
X5316710Y3049984D02*
X5383355D01*
X5350032D01*
Y2950016D01*
X5416678D02*
Y3049984D01*
X5466661D01*
X5483323Y3033323D01*
Y3000000D01*
X5466661Y2983339D01*
X5416678D01*
X5583290Y2950016D02*
X5516645D01*
X5583290Y3016661D01*
Y3033323D01*
X5566629Y3049984D01*
X5533307D01*
X5516645Y3033323D01*
X5766710Y3049984D02*
X5833355D01*
X5800032D01*
Y2950016D01*
X5866678D02*
Y3049984D01*
X5916662D01*
X5933323Y3033323D01*
Y3000000D01*
X5916662Y2983339D01*
X5866678D01*
X5966645Y3033323D02*
X5983307Y3049984D01*
X6016629D01*
X6033290Y3033323D01*
Y3016661D01*
X6016629Y3000000D01*
X5999968D01*
X6016629D01*
X6033290Y2983339D01*
Y2966678D01*
X6016629Y2950016D01*
X5983307D01*
X5966645Y2966678D01*
X4066707Y6188896D02*
X4133352D01*
X4100029D01*
Y6088928D01*
X4166674D02*
Y6188896D01*
X4216658D01*
X4233319Y6172235D01*
Y6138912D01*
X4216658Y6122251D01*
X4166674D01*
X4266642Y6088928D02*
X4299965D01*
X4283304D01*
Y6188896D01*
X4266642Y6172235D01*
%TF.MD5,6e77a8d4dc5101b4155b975baf863347*%
M02*
