%TF.GenerationSoftware,Altium Limited,Altium Designer,24.3.1 (35)*%
G04 Layer_Color=16711935*
%FSLAX45Y45*%
%MOMM*%
%TF.SameCoordinates,77145657-7363-482A-8684-523018AF0833*%
%TF.FilePolarity,Negative*%
%TF.FileFunction,Soldermask,Bot*%
%TF.Part,Single*%
G01*
G75*
%TA.AperFunction,ComponentPad*%
%ADD34R,1.20000X1.20000*%
%ADD35C,1.20000*%
%ADD39C,1.35000*%
%ADD40R,1.35000X1.35000*%
%ADD42R,1.20000X1.20000*%
%TA.AperFunction,ViaPad*%
%ADD60C,5.20320*%
%TA.AperFunction,ComponentPad*%
%ADD61R,1.70320X1.70320*%
%ADD62C,1.70320*%
G04:AMPARAMS|DCode=63|XSize=1.8032mm|YSize=1.8032mm|CornerRadius=0.5016mm|HoleSize=0mm|Usage=FLASHONLY|Rotation=0.000|XOffset=0mm|YOffset=0mm|HoleType=Round|Shape=RoundedRectangle|*
%AMROUNDEDRECTD63*
21,1,1.80320,0.80000,0,0,0.0*
21,1,0.80000,1.80320,0,0,0.0*
1,1,1.00320,0.40000,-0.40000*
1,1,1.00320,-0.40000,-0.40000*
1,1,1.00320,-0.40000,0.40000*
1,1,1.00320,0.40000,0.40000*
%
%ADD63ROUNDEDRECTD63*%
%ADD64R,2.15320X2.15320*%
%ADD65C,2.15320*%
%ADD66C,1.75320*%
%ADD67C,1.25320*%
%ADD68R,1.25320X1.25320*%
%ADD69R,2.10820X2.10820*%
%ADD70C,2.10820*%
%ADD71R,2.15320X2.15320*%
%ADD72C,1.80320*%
%ADD73R,1.80320X1.80320*%
%ADD74C,2.30320*%
%ADD75C,1.40320*%
%ADD76R,1.75320X1.75320*%
%ADD77C,1.85320*%
%ADD78R,1.85320X1.85320*%
%TA.AperFunction,ViaPad*%
%ADD79C,1.47320*%
D34*
X1631303Y5500002D02*
D03*
D35*
X868698D02*
D03*
X6642453Y7051312D02*
D03*
D39*
X3917999Y5793052D02*
D03*
X4171999D02*
D03*
X4425999D02*
D03*
X4679999D02*
D03*
X4933999D02*
D03*
X5187999D02*
D03*
X5441999D02*
D03*
X5695999D02*
D03*
X5949999D02*
D03*
X6203999D02*
D03*
X6457999D02*
D03*
X6711999D02*
D03*
X6965999D02*
D03*
X7219999D02*
D03*
X7473999D02*
D03*
X7727999D02*
D03*
X7981999D02*
D03*
X8235999D02*
D03*
X8489999D02*
D03*
X8743999D02*
D03*
Y4250002D02*
D03*
X8489999D02*
D03*
X8235999D02*
D03*
X7981999D02*
D03*
X7727999D02*
D03*
X7473999D02*
D03*
X7219999D02*
D03*
X6965999D02*
D03*
X6711999D02*
D03*
X6457999D02*
D03*
X6203999D02*
D03*
X5949999D02*
D03*
X5695999D02*
D03*
X5441999D02*
D03*
X5187999D02*
D03*
X4933999D02*
D03*
X4679999D02*
D03*
X4425999D02*
D03*
X4171999D02*
D03*
D40*
X3917999D02*
D03*
D42*
X6642453Y7813911D02*
D03*
D60*
X9300000Y600000D02*
D03*
Y7600000D02*
D03*
D61*
X7348502Y2231002D02*
D03*
D62*
X7094502D02*
D03*
X6840502D02*
D03*
X6586502D02*
D03*
X7348502Y1469002D02*
D03*
X7094502D02*
D03*
X6840502D02*
D03*
X6586502D02*
D03*
D63*
X8288673Y1450002D02*
D03*
X4950001Y3000002D02*
D03*
X4952337Y3669500D02*
D03*
X5450000Y3000002D02*
D03*
X5900001D02*
D03*
X4183337Y6138914D02*
D03*
D64*
X3041998Y649999D02*
D03*
X441998D02*
D03*
X1750002D02*
D03*
X4342001D02*
D03*
X5641998D02*
D03*
D65*
X3549998D02*
D03*
X949998D02*
D03*
X2258002D02*
D03*
X4850001D02*
D03*
X800001Y4308000D02*
D03*
X6149998Y649999D02*
D03*
D66*
X1899999Y2700002D02*
D03*
Y1745999D02*
D03*
X500002Y7304001D02*
D03*
Y7050001D02*
D03*
Y6796001D02*
D03*
Y6542001D02*
D03*
X754002Y7558001D02*
D03*
Y7304001D02*
D03*
Y7050001D02*
D03*
Y6796001D02*
D03*
Y6542001D02*
D03*
D67*
X3300001Y1778841D02*
D03*
X3427001Y1905841D02*
D03*
X1850002Y3222999D02*
D03*
X1977002Y3349999D02*
D03*
X4000000Y2846002D02*
D03*
X4127000Y2973002D02*
D03*
X3300001Y2850000D02*
D03*
X3427001Y2977000D02*
D03*
D68*
X3300001Y2032841D02*
D03*
X1850002Y3476999D02*
D03*
X4000000Y3100002D02*
D03*
X3300001Y3104000D02*
D03*
D69*
X2573002Y1869001D02*
D03*
D70*
X2827002D02*
D03*
Y2631001D02*
D03*
X2573002D02*
D03*
D71*
X800001Y3800000D02*
D03*
D72*
X2140562Y5458498D02*
D03*
X2394562D02*
D03*
X8529450Y6178416D02*
D03*
X8275450D02*
D03*
X8021450D02*
D03*
X5206337Y3669500D02*
D03*
X6790855D02*
D03*
X6536855D02*
D03*
X7044855D02*
D03*
X7298855D02*
D03*
X6058294Y6178416D02*
D03*
X6312294D02*
D03*
X7086598Y6588788D02*
D03*
X7340598D02*
D03*
D73*
X2648562Y5458498D02*
D03*
X8783450Y6178416D02*
D03*
X6282855Y3669500D02*
D03*
X6566294Y6178416D02*
D03*
X7594598Y6588788D02*
D03*
D74*
X3107998Y4499999D02*
D03*
Y3700000D02*
D03*
X2599998D02*
D03*
Y4499999D02*
D03*
D75*
X8600001Y3349999D02*
D03*
X8100002D02*
D03*
X4450002Y7550000D02*
D03*
X3950003D02*
D03*
X5250000D02*
D03*
X5749999D02*
D03*
X8500001Y7050001D02*
D03*
Y7550000D02*
D03*
D76*
X500002Y7558001D02*
D03*
D77*
X7179338Y7511911D02*
D03*
X7433338D02*
D03*
X7179338Y7765911D02*
D03*
X7433338D02*
D03*
X7687338Y7511911D02*
D03*
D78*
Y7765911D02*
D03*
D79*
X8500000Y1900000D02*
D03*
X7710000Y3028780D02*
D03*
X7839540Y1527640D02*
D03*
X8563440Y1632258D02*
D03*
X6567000Y2426800D02*
D03*
X7432500Y625300D02*
D03*
X1417181Y5189081D02*
D03*
X5614500Y6104715D02*
D03*
X8784420Y1062820D02*
D03*
X2581740Y5103960D02*
D03*
%TF.MD5,76aa2c9208b32ea21e71c6eac4d7579f*%
M02*
