%TF.GenerationSoftware,Altium Limited,Altium Designer,24.3.1 (35)*%
G04 Layer_Color=8421504*
%FSLAX45Y45*%
%MOMM*%
%TF.SameCoordinates,77145657-7363-482A-8684-523018AF0833*%
%TF.FilePolarity,Positive*%
%TF.FileFunction,Paste,Top*%
%TF.Part,Single*%
G01*
G75*
%TA.AperFunction,SMDPad,CuDef*%
%ADD10R,1.47000X1.16000*%
%ADD11R,0.95000X1.45000*%
%ADD12R,1.50000X1.25000*%
%ADD13R,1.45000X0.95000*%
%ADD15R,3.78000X1.06000*%
%ADD16R,1.16000X1.47000*%
%ADD17R,1.00000X2.20000*%
%ADD18C,6.29100*%
%ADD19R,2.16000X1.07000*%
%ADD20R,4.24000X3.81000*%
G36*
X3077908Y6040000D02*
X2886908D01*
Y6163500D01*
X2378908D01*
Y6996500D01*
X2886908D01*
Y7120000D01*
X3077908D01*
Y6040000D01*
D02*
G37*
G36*
X6167936Y1759215D02*
X5609935D01*
Y2525215D01*
X6167936D01*
Y1759215D01*
D02*
G37*
D10*
X8501830Y479499D02*
D03*
Y654500D02*
D03*
X8188673Y479499D02*
D03*
Y654500D02*
D03*
Y2277499D02*
D03*
Y2102498D02*
D03*
X8501830Y2277499D02*
D03*
Y2102498D02*
D03*
X8809708Y2277499D02*
D03*
Y2102498D02*
D03*
Y479499D02*
D03*
Y654500D02*
D03*
X5300414Y6104715D02*
D03*
Y6279716D02*
D03*
D11*
X6700000Y849999D02*
D03*
X6899999D02*
D03*
X7432500D02*
D03*
X7232500D02*
D03*
X7688674D02*
D03*
X7888674D02*
D03*
Y1750002D02*
D03*
X7688674D02*
D03*
Y1299980D02*
D03*
X7888674D02*
D03*
X7688674Y2199998D02*
D03*
X7888674D02*
D03*
Y400002D02*
D03*
X7688674D02*
D03*
X6899999D02*
D03*
X6700000D02*
D03*
X7232500D02*
D03*
X7432500D02*
D03*
X6999999Y2650000D02*
D03*
X7199999D02*
D03*
X6550002D02*
D03*
X6750002D02*
D03*
X3900000Y2350001D02*
D03*
X3700000D02*
D03*
X4350002D02*
D03*
X4150002D02*
D03*
X1917500Y4099593D02*
D03*
X1717500D02*
D03*
X1917500Y4634502D02*
D03*
X1717500D02*
D03*
X3800000Y3649998D02*
D03*
X3600001D02*
D03*
X4134163D02*
D03*
X4334162D02*
D03*
D12*
X8788677Y1524998D02*
D03*
Y1249998D02*
D03*
D13*
X4933338Y6256414D02*
D03*
Y6056414D02*
D03*
X4583336Y6256414D02*
D03*
Y6056414D02*
D03*
X900001Y4799998D02*
D03*
Y4999998D02*
D03*
X1399797Y5000003D02*
D03*
Y4799998D02*
D03*
X3200001Y5549999D02*
D03*
Y5350000D02*
D03*
D15*
X4813938Y1888213D02*
D03*
Y2396213D02*
D03*
D16*
X6773299Y3100002D02*
D03*
X6598303D02*
D03*
X7212912D02*
D03*
X7037911D02*
D03*
D17*
X1584998Y2900002D02*
D03*
X1076998D02*
D03*
X822998D02*
D03*
X568998D02*
D03*
Y2099999D02*
D03*
X822998D02*
D03*
X1076998D02*
D03*
X1584998D02*
D03*
D18*
X2728410Y6580000D02*
D03*
D19*
X1660909Y6326000D02*
D03*
Y6580000D02*
D03*
Y6834000D02*
D03*
D20*
X2865910Y7617290D02*
D03*
X2228909D02*
D03*
%TF.MD5,53107d4e101e5ebac321ca76d13b24c6*%
M02*
