%TF.GenerationSoftware,Altium Limited,Altium Designer,24.3.1 (35)*%
G04 Layer_Color=0*
%FSLAX45Y45*%
%MOMM*%
%TF.SameCoordinates,77145657-7363-482A-8684-523018AF0833*%
%TF.FilePolarity,Positive*%
%TF.FileFunction,Plated,1,2,PTH,Drill*%
%TF.Part,Single*%
G01*
G75*
%TA.AperFunction,OtherDrill,Pad Free-17 (93mm,6mm)*%
%ADD81C,4.00000*%
%TA.AperFunction,OtherDrill,Pad Free-16 (93mm,76mm)*%
%ADD82C,4.00000*%
%TA.AperFunction,ComponentDrill*%
%ADD83C,0.90000*%
%ADD84C,1.10000*%
%ADD85C,1.30000*%
%ADD86C,1.05000*%
%ADD87C,0.80000*%
%ADD88C,1.27000*%
%ADD89C,1.30000*%
%ADD90C,0.70000*%
%ADD91C,1.40000*%
%ADD92C,0.85000*%
%ADD93C,0.75000*%
%ADD94C,1.02000*%
%ADD95C,0.70000*%
%ADD96C,0.75000*%
%TA.AperFunction,ViaDrill,NotFilled*%
%ADD97C,0.71120*%
D81*
X9300000Y600000D02*
D03*
D82*
Y7600000D02*
D03*
D83*
X7348502Y2231002D02*
D03*
X7094502D02*
D03*
X6840502D02*
D03*
X6586502D02*
D03*
X7348502Y1469002D02*
D03*
X7094502D02*
D03*
X6840502D02*
D03*
X6586502D02*
D03*
D84*
X8288673Y1450002D02*
D03*
X2140562Y5458498D02*
D03*
X2394562D02*
D03*
X2648562D02*
D03*
X8529450Y6178416D02*
D03*
X8783450D02*
D03*
X8275450D02*
D03*
X8021450D02*
D03*
X4950001Y3000002D02*
D03*
X4952337Y3669500D02*
D03*
X5206337D02*
D03*
X5450000Y3000002D02*
D03*
X5900001D02*
D03*
X6790855Y3669500D02*
D03*
X6282855D02*
D03*
X6536855D02*
D03*
X7044855D02*
D03*
X7298855D02*
D03*
X4183337Y6138914D02*
D03*
X6058294Y6178416D02*
D03*
X6312294D02*
D03*
X6566294D02*
D03*
X7086598Y6588788D02*
D03*
X7340598D02*
D03*
X7594598D02*
D03*
X7179338Y7511911D02*
D03*
X7433338D02*
D03*
X7179338Y7765911D02*
D03*
X7433338D02*
D03*
X7687338Y7511911D02*
D03*
Y7765911D02*
D03*
D85*
X3041998Y649999D02*
D03*
X3549998D02*
D03*
X441998D02*
D03*
X949998D02*
D03*
X1750002D02*
D03*
X2258002D02*
D03*
X4342001D02*
D03*
X4850001D02*
D03*
X6149998D02*
D03*
X5641998D02*
D03*
D86*
X1899999Y2700002D02*
D03*
Y1745999D02*
D03*
D87*
X3300001Y1778841D02*
D03*
X3427001Y1905841D02*
D03*
X3300001Y2032841D02*
D03*
X1850002Y3222999D02*
D03*
X1977002Y3349999D02*
D03*
X1850002Y3476999D02*
D03*
X4000000Y2846002D02*
D03*
X4127000Y2973002D02*
D03*
X4000000Y3100002D02*
D03*
X3300001Y2850000D02*
D03*
X3427001Y2977000D02*
D03*
X3300001Y3104000D02*
D03*
D88*
X2573002Y1869001D02*
D03*
X2827002D02*
D03*
Y2631001D02*
D03*
X2573002D02*
D03*
D89*
X800001Y4308000D02*
D03*
Y3800000D02*
D03*
D90*
X1631303Y5500002D02*
D03*
X868698D02*
D03*
D91*
X3107998Y4499999D02*
D03*
Y3700000D02*
D03*
X2599998D02*
D03*
Y4499999D02*
D03*
D92*
X3917999Y5793052D02*
D03*
X4171999D02*
D03*
X4425999D02*
D03*
X4679999D02*
D03*
X4933999D02*
D03*
X5187999D02*
D03*
X5441999D02*
D03*
X5695999D02*
D03*
X5949999D02*
D03*
X6203999D02*
D03*
X6457999D02*
D03*
X6711999D02*
D03*
X6965999D02*
D03*
X7219999D02*
D03*
X7473999D02*
D03*
X7727999D02*
D03*
X7981999D02*
D03*
X8235999D02*
D03*
X8489999D02*
D03*
X8743999D02*
D03*
Y4250002D02*
D03*
X8489999D02*
D03*
X8235999D02*
D03*
X7981999D02*
D03*
X7727999D02*
D03*
X7473999D02*
D03*
X7219999D02*
D03*
X6965999D02*
D03*
X6711999D02*
D03*
X6457999D02*
D03*
X6203999D02*
D03*
X5949999D02*
D03*
X5695999D02*
D03*
X5441999D02*
D03*
X5187999D02*
D03*
X4933999D02*
D03*
X4679999D02*
D03*
X4425999D02*
D03*
X4171999D02*
D03*
X3917999D02*
D03*
D93*
X8600001Y3349999D02*
D03*
X8100002D02*
D03*
X4450002Y7550000D02*
D03*
X3950003D02*
D03*
X5250000D02*
D03*
X5749999D02*
D03*
D94*
X500002Y7558001D02*
D03*
Y7304001D02*
D03*
Y7050001D02*
D03*
Y6796001D02*
D03*
Y6542001D02*
D03*
X754002Y7558001D02*
D03*
Y7304001D02*
D03*
Y7050001D02*
D03*
Y6796001D02*
D03*
Y6542001D02*
D03*
D95*
X6642453Y7051312D02*
D03*
Y7813911D02*
D03*
D96*
X8500001Y7050001D02*
D03*
Y7550000D02*
D03*
D97*
X8500000Y1900000D02*
D03*
X7710000Y3028780D02*
D03*
X7839540Y1527640D02*
D03*
X8563440Y1632258D02*
D03*
X6567000Y2426800D02*
D03*
X7432500Y625300D02*
D03*
X1417181Y5189081D02*
D03*
X5614500Y6104715D02*
D03*
X8784420Y1062820D02*
D03*
X2581740Y5103960D02*
D03*
%TF.MD5,8c659cbf31333fa2584f9cf240dcf113*%
M02*
